<svg data-v-423bf9ae="" xmlns="http://www.w3.org/2000/svg" viewBox="0 0 221.975491428337 60" class="font"><!----><!----><!----><g data-v-423bf9ae="" id="e686f2c4-df7c-46c6-9240-aebe963b4ea1" fill="black" transform="matrix(4.897958802362652,0,0,4.897958802362652,-2.5959191695105233,-18.56326415094931)"><path d="M5.42 15.93L0.53 15.93L0.53 3.91L2.94 3.91L2.94 13.89L5.42 13.89L5.42 15.93ZM8.11 15.93L5.77 15.93L6.93 3.91L11.00 3.91L12.15 15.93L9.87 15.93L9.70 13.99L8.25 13.99L8.11 15.93ZM8.88 5.95L8.43 12.07L9.52 12.07L8.99 5.95L8.88 5.95ZM15.23 15.93L12.88 15.93L12.88 3.91L15.36 3.91L16.46 9.66L16.46 3.91L18.79 3.91L18.79 15.93L16.44 15.93L15.23 9.91L15.23 15.93ZM22.33 16.04L22.33 16.04Q21.03 16.04 20.39 15.13L20.39 15.13L20.39 15.13Q19.75 14.21 19.75 12.35L19.75 12.35L19.75 7.17L19.75 7.17Q19.75 5.50 20.50 4.65L20.50 4.65L20.50 4.65Q21.24 3.79 22.71 3.79L22.71 3.79L22.71 3.79Q23.90 3.79 24.56 4.27L24.56 4.27L24.56 4.27Q25.21 4.75 25.47 5.66L25.47 5.66L25.47 5.66Q25.72 6.57 25.72 7.99L25.72 7.99L23.37 7.99L23.37 6.92L23.37 6.92Q23.37 6.48 23.25 6.24L23.25 6.24L23.25 6.24Q23.13 6.01 22.82 6.01L22.82 6.01L22.82 6.01Q22.13 6.01 22.13 6.90L22.13 6.90L22.13 12.73L22.13 12.73Q22.13 13.27 22.27 13.55L22.27 13.55L22.27 13.55Q22.41 13.83 22.76 13.83L22.76 13.83L22.76 13.83Q23.11 13.83 23.25 13.55L23.25 13.55L23.25 13.55Q23.39 13.27 23.39 12.73L23.39 12.73L23.39 11.00L22.75 11.00L22.75 8.93L25.69 8.93L25.69 15.93L24.72 15.93L24.32 14.92L24.32 14.92Q23.67 16.04 22.33 16.04L22.33 16.04ZM31.04 15.93L27.75 15.93L26.26 3.89L28.56 3.89L29.44 12.08L30.23 3.89L32.52 3.89L31.04 15.93ZM36.08 16.04L36.08 16.04Q34.62 16.04 33.87 15.16L33.87 15.16L33.87 15.16Q33.11 14.27 33.11 12.66L33.11 12.66L33.11 6.93L33.11 6.93Q33.11 5.38 33.87 4.59L33.87 4.59L33.87 4.59Q34.62 3.79 36.08 3.79L36.08 3.79L36.08 3.79Q37.53 3.79 38.29 4.59L38.29 4.59L38.29 4.59Q39.05 5.38 39.05 6.93L39.05 6.93L39.05 12.66L39.05 12.66Q39.05 14.28 38.29 15.16L38.29 15.16L38.29 15.16Q37.53 16.04 36.08 16.04L36.08 16.04ZM36.08 13.83L36.08 13.83Q36.40 13.83 36.51 13.55L36.51 13.55L36.51 13.55Q36.62 13.27 36.62 12.77L36.62 12.77L36.62 6.89L36.62 6.89Q36.62 6.50 36.52 6.25L36.52 6.25L36.52 6.25Q36.41 6.01 36.09 6.01L36.09 6.01L36.09 6.01Q35.49 6.01 35.49 6.92L35.49 6.92L35.49 12.78L35.49 12.78Q35.49 13.30 35.62 13.57L35.62 13.57L35.62 13.57Q35.74 13.83 36.08 13.83L36.08 13.83ZM42.81 16.04L42.81 16.04Q41.50 16.04 40.71 15.22L40.71 15.22L40.71 15.22Q39.91 14.39 39.91 12.95L39.91 12.95L39.91 7.41L39.91 7.41Q39.91 5.61 40.63 4.70L40.63 4.70L40.63 4.70Q41.34 3.79 42.87 3.79L42.87 3.79L42.87 3.79Q44.20 3.79 45.01 4.52L45.01 4.52L45.01 4.52Q45.82 5.25 45.82 6.62L45.82 6.62L45.82 8.69L43.43 8.69L43.43 6.92L43.43 6.92Q43.43 6.40 43.30 6.20L43.30 6.20L43.30 6.20Q43.18 6.01 42.87 6.01L42.87 6.01L42.87 6.01Q42.55 6.01 42.43 6.23L42.43 6.23L42.43 6.23Q42.31 6.45 42.31 6.89L42.31 6.89L42.31 12.92L42.31 12.92Q42.31 13.40 42.45 13.62L42.45 13.62L42.45 13.62Q42.59 13.83 42.87 13.83L42.87 13.83L42.87 13.83Q43.43 13.83 43.43 12.92L43.43 12.92L43.43 10.75L45.85 10.75L45.85 13.02L45.85 13.02Q45.85 16.04 42.81 16.04L42.81 16.04Z"></path></g><!----><!----></svg>