<svg width="117" height="51" viewBox="0 0 117 51" fill="none" xmlns="http://www.w3.org/2000/svg">
<path d="M86.4933 50.0612H0.424805L28.9767 0H116.048L86.4933 50.0612ZM6.08798 46.7989H84.6056L110.208 3.32159H30.8644L6.08798 46.7989Z" fill="#8491B0"/>
<path d="M52.9268 6.70239H32.9287L12.2227 43.7738H22.3692L37.117 17.3196H37.235V36.0036H31.8668L27.5014 43.7738H37.235H40.2436H46.8506V17.3196H46.9096L52.9268 6.70239Z" fill="#0A365C"/>
<path d="M78.1162 6.70239H58.0591L52.042 17.3196H59.5339V43.7738H69.1495V17.3196H72.0401L78.1162 6.70239Z" fill="#0A365C"/>
<path d="M83.2486 6.70239L77.2314 17.3196H82.4227V43.7738L91.9793 27.2844V17.3196H97.8195L104.014 6.70239H83.2486Z" fill="#0A365C"/>
</svg>
